<svg width="30" height="30" viewBox="0 0 30 30" fill="none" xmlns="http://www.w3.org/2000/svg">
  <g clip-path="url(#clip0_34_186)">
    <path d="M27.5768 4.26109C26.0059 2.69017 23.9262 1.83158 21.7066 1.83158C19.487 1.83158 17.4009 2.69653 15.83 4.26744L15.0095 5.08788L14.1764 4.25472C12.6055 2.68381 10.5131 1.8125 8.29342 1.8125C6.08016 1.8125 3.99409 2.67745 2.42954 4.242C0.858629 5.81292 -0.00632514 7.89898 3.48253e-05 10.1186C3.48253e-05 12.3382 0.871349 14.4179 2.44226 15.9889L14.3863 27.9329C14.5516 28.0982 14.7742 28.1873 14.9905 28.1873C15.2067 28.1873 15.4293 28.1046 15.5947 27.9392L27.5641 16.0143C29.135 14.4434 30 12.3573 30 10.1377C30.0063 7.91806 29.1477 5.832 27.5768 4.26109ZM26.3557 14.7995L14.9905 26.1203L3.65065 14.7805C2.4041 13.5339 1.71722 11.8803 1.71722 10.1186C1.71722 8.3569 2.39774 6.70331 3.64429 5.46312C4.88448 4.22293 6.53807 3.53605 8.29342 3.53605C10.0551 3.53605 11.7151 4.22293 12.9616 5.46948L14.399 6.90683C14.7361 7.24391 15.2767 7.24391 15.6137 6.90683L17.0384 5.4822C18.2849 4.23564 19.9449 3.54877 21.7002 3.54877C23.4556 3.54877 25.1092 4.23565 26.3557 5.47584C27.6023 6.72239 28.2828 8.37598 28.2828 10.1377C28.2891 11.8994 27.6023 13.553 26.3557 14.7995Z" fill="#181818" />
  </g>
  <defs>
    <clipPath id="clip0_34_186">
      <rect width="30" height="30" fill="white" />
    </clipPath>
  </defs>
</svg>